<svg xmlns="http://www.w3.org/2000/svg" aria-hidden="true">
<defs>
 <linearGradient id="sky" x1="0" y1="0" x2="1" y2="1"><stop stop-color="#78EEFF"/><stop offset=".55" stop-color="#26C8F5"/><stop offset="1" stop-color="#087FC6"/></linearGradient>
 <linearGradient id="sun" x1="0" y1="0" x2="1" y2="1"><stop stop-color="#FFF36A"/><stop offset=".55" stop-color="#FFD044"/><stop offset="1" stop-color="#FF8A1F"/></linearGradient>
 <linearGradient id="sea" x1="0" y1="0" x2="0" y2="1"><stop stop-color="#67EDFF"/><stop offset="1" stop-color="#008FD0"/></linearGradient>
 <linearGradient id="fish" x1="0" y1="0" x2="1" y2="1"><stop stop-color="#B7F7FF"/><stop offset=".45" stop-color="#45D8F5"/><stop offset="1" stop-color="#087DBB"/></linearGradient>
 <linearGradient id="green" x1="0" y1="0" x2="1" y2="1"><stop stop-color="#9AF36A"/><stop offset="1" stop-color="#37B84D"/></linearGradient>
 <filter id="glow"><feGaussianBlur stdDeviation="1.2" result="b"/><feMerge><feMergeNode in="b"/><feMergeNode in="SourceGraphic"/></feMerge></filter>
 <style>.line{fill:none;stroke:#DDF8FF;stroke-width:1.8;stroke-linecap:round;stroke-linejoin:round}.cyan{fill:none;stroke:url(#sky);stroke-width:2.4;stroke-linecap:round;stroke-linejoin:round}.thin{fill:none;stroke:#83E9FF;stroke-width:1.25;stroke-linecap:round;stroke-linejoin:round}</style>
</defs>

<symbol id="menu-2" viewBox="0 0 32 32"><path d="M5 8h22M5 16h22M5 24h22" class="line" stroke-width="2.8"/></symbol>
<symbol id="language" viewBox="0 0 32 32"><circle cx="16" cy="16" r="12" class="cyan"/><path d="M4 16h24M16 4c4.5 4.2 4.5 19.8 0 24M16 4c-4.5 4.2-4.5 19.8 0 24" class="thin"/></symbol>
<symbol id="crosshair" viewBox="0 0 32 32"><circle cx="16" cy="16" r="5.5" fill="#062232" stroke="#63E5FF" stroke-width="2"/><circle cx="16" cy="16" r="2" fill="#63E5FF" filter="url(#glow)"/><path d="M16 2.5v5M16 24.5v5M2.5 16h5M24.5 16h5" class="cyan" stroke-width="2.3"/></symbol>
<symbol id="search" viewBox="0 0 32 32"><circle cx="13.5" cy="13.5" r="8.2" class="cyan"/><path d="m20 20 7 7" class="cyan" stroke-width="2.4"/></symbol>

<symbol id="sun" viewBox="0 0 48 48"><g stroke="#FFD34E" stroke-width="3" stroke-linecap="round"><path d="M24 3v7M24 38v7M3 24h7M38 24h7M9 9l5 5M34 34l5 5M9 39l5-5M34 14l5-5"/></g><circle cx="24" cy="24" r="10" fill="url(#sun)" stroke="#FFE77A" stroke-width="1.4" filter="url(#glow)"/><circle cx="20.5" cy="20.5" r="2.5" fill="#FFF7B0" opacity=".85"/></symbol>
<symbol id="cloud" viewBox="0 0 48 48"><path d="M11 35h26a8.5 8.5 0 0 0 .4-17 11.8 11.8 0 0 0-22.4 3.4A7 7 0 0 0 11 35Z" fill="#EAFBFF" stroke="#BCEAF7" stroke-width="1.8"/><path d="M17 30c5 2 10 2 15 0" class="thin" opacity=".8"/></symbol>
<symbol id="cloud-sun" viewBox="0 0 48 48"><g stroke="#FFD34E" stroke-width="1.8" stroke-linecap="round"><path d="M15 4v4M15 22v4M4 15h4M22 15h4M7 7l3 3M20 20l3 3"/></g><circle cx="15" cy="15" r="6.5" fill="url(#sun)"/><path d="M12 37h25a7.2 7.2 0 0 0 .3-14.4 10.2 10.2 0 0 0-19.2 3.1A6.5 6.5 0 0 0 12 37Z" fill="#F3FCFF" stroke="#A9DFEF" stroke-width="1.5"/></symbol>
<symbol id="cloud-rain" viewBox="0 0 48 48"><path d="M10 30h28a8 8 0 0 0 .2-16 11.5 11.5 0 0 0-21.8 3.3A7 7 0 0 0 10 30Z" fill="#DFF6FC" stroke="#A7DDEB" stroke-width="1.6"/><g stroke="#42DFFF" stroke-width="2.5" stroke-linecap="round"><path d="m15 35-2 5M24 35l-2 5M33 35l-2 5"/></g></symbol>
<symbol id="droplet" viewBox="0 0 48 48"><path d="M24 4S10.5 20 10.5 29.5a13.5 13.5 0 0 0 27 0C37.5 20 24 4 24 4Z" fill="url(#sky)" fill-opacity=".48" stroke="#71E8FF" stroke-width="2.1"/><path d="M17 29c0 4 2.7 7 6.7 7" class="line" opacity=".85"/></symbol>
<symbol id="gauge" viewBox="0 0 48 48"><path d="M8 34a16 16 0 1 1 32 0" class="cyan" stroke-width="2.8"/><path d="M24 25l9-8" class="line" stroke-width="2.2"/><circle cx="24" cy="25" r="3.2" fill="#61E3FF"/><path d="M7 38h34" class="thin"/></symbol>
<symbol id="wind" viewBox="0 0 48 48"><path d="M4 14h26a5 5 0 1 0-4.5-7.3M4 24h35a5 5 0 1 1-4.6 7.4M4 34h21" class="cyan" stroke-width="3.1"/><path d="M34 12h9M36 36h7" class="thin"/></symbol>
<symbol id="waves" viewBox="0 0 48 48"><path d="M3 14c7 0 7 5.5 14 5.5S24 14 31 14s7 5.5 14 5.5" fill="none" stroke="url(#sea)" stroke-width="3.6" stroke-linecap="round"/><path d="M3 25c7 0 7 5.5 14 5.5S24 25 31 25s7 5.5 14 5.5" fill="none" stroke="#26C8F5" stroke-width="3.6" stroke-linecap="round"/><path d="M9 36c4 0 4 3 8 3s4-3 8-3" class="thin"/></symbol>
<symbol id="tide" viewBox="0 0 48 48"><path d="M3 16c7 0 7 5 14 5s7-5 14-5 7 5 14 5" class="cyan" stroke-width="2.8"/><path d="M24 6v35M17 34l7 7 7-7" class="line" stroke-width="2.1"/></symbol>
<symbol id="navigation" viewBox="0 0 48 48"><path d="m24 4 15 40-15-9-15 9Z" fill="url(#sea)" fill-opacity=".6" stroke="#71E8FF" stroke-width="1.8"/><path d="m24 4 4.5 25-4.5 7-4.5-7Z" fill="#E9FCFF" opacity=".55"/></symbol>
<symbol id="temperature" viewBox="0 0 48 48"><path d="M29 29V10a5 5 0 0 0-10 0v19a9 9 0 1 0 10 0Z" fill="#43DFFF" fill-opacity=".13" stroke="#67E5FF" stroke-width="2"/><path d="M24 14v20" class="cyan" stroke-width="2.6"/><circle cx="24" cy="36" r="4.8" fill="#5DE4FF"/></symbol>
<symbol id="fish" viewBox="0 0 48 48"><path d="M42 24c-5.5-8.2-12.4-10.5-19.8-7.3C17.8 18.2 14 21 11 24c3 3 6.8 5.8 11.2 7.3C29.6 34.5 36.5 32.2 42 24Z" fill="url(#fish)" stroke="#8DEFFF" stroke-width="1.7"/><path d="m12 24-9-7v14Z" fill="#22BFEF" stroke="#8DEFFF" stroke-width="1.5"/><circle cx="34" cy="20.2" r="2.1" fill="#fff"/><circle cx="34.4" cy="20" r=".8" fill="#073044"/><path d="M24 18c2 4 2 8 0 12" class="thin"/></symbol>
<symbol id="home" viewBox="0 0 32 32"><path d="m4 14 12-11 12 11v14H4Z" fill="#43D8FF" fill-opacity=".14" stroke="#DDF8FF" stroke-width="1.9"/><path d="M10.5 28V18h11v10" class="cyan" stroke-width="2.2"/></symbol>
<symbol id="map" viewBox="0 0 32 32"><path d="m4 6 8-3 8 3 8-3v23l-8 3-8-3-8 3Z" fill="#42D8FF" fill-opacity=".08" stroke="#DDF8FF" stroke-width="1.7"/><path d="M12 3v23M20 6v23" class="cyan"/></symbol>
<symbol id="calendar" viewBox="0 0 32 32"><rect x="5" y="6" width="22" height="21" rx="3.5" fill="#42D8FF" fill-opacity=".08" stroke="#DDF8FF" stroke-width="1.7"/><path d="M10 3v6M22 3v6M5 12h22" class="cyan"/><path d="M10 17h2M15 17h2M20 17h2M10 22h2M15 22h2" class="thin"/></symbol>
<symbol id="map-pin" viewBox="0 0 32 32"><path d="M26 13c0 8-10 15-10 15S6 21 6 13a10 10 0 1 1 20 0Z" fill="#49D9FF" fill-opacity=".17" stroke="#DDF8FF" stroke-width="1.9"/><circle cx="16" cy="13" r="3.2" fill="#62E2FF"/></symbol>
<symbol id="compass" viewBox="0 0 48 48"><circle cx="24" cy="24" r="19" fill="#082B3A" stroke="#63E2FF" stroke-width="1.6"/><circle cx="24" cy="24" r="13.5" fill="none" stroke="#4C91A9" stroke-width="1"/><path d="m29 15-5 12-12 5 5-12Z" fill="url(#sky)" stroke="#E5FBFF" stroke-width="1.3"/><circle cx="24" cy="24" r="3.2" fill="#063044" stroke="#63E2FF" stroke-width="1.2"/></symbol>
<symbol id="moon" viewBox="0 0 48 48"><path d="M39 30A15 15 0 0 1 18 9a15 15 0 1 0 21 21Z" fill="#EAF8FF" stroke="#BFDCE7" stroke-width="1.7"/><circle cx="31" cy="16" r="1.4" fill="#8AAAB8"/><circle cx="26" cy="26" r="1.1" fill="#8AAAB8"/></symbol>
<symbol id="sun-moon" viewBox="0 0 48 48"><circle cx="15" cy="15" r="7" fill="url(#sun)"/><g stroke="#FFD75A" stroke-width="1.8" stroke-linecap="round"><path d="M15 3v4M15 23v4M3 15h4M23 15h4M6.5 6.5l2.8 2.8M20.7 20.7l2.8 2.8"/></g><path d="M39 31a11 11 0 0 1-15-15 11 11 0 1 0 15 15Z" fill="#EAF7FC"/></symbol>
</svg>