<svg xmlns="http://www.w3.org/2000/svg" aria-hidden="true"><defs><style>.i{fill:none;stroke:currentColor;stroke-width:2;stroke-linecap:round;stroke-linejoin:round}</style></defs>
<symbol id="menu-2" viewBox="0 0 24 24"><path class="i" d="M4 6h16M4 12h16M4 18h16"/></symbol>
<symbol id="language" viewBox="0 0 24 24"><circle class="i" cx="12" cy="12" r="9"/><path class="i" d="M3 12h18M12 3c3 3 3 15 0 18M12 3c-3 3-3 15 0 18"/></symbol>
<symbol id="crosshair" viewBox="0 0 24 24"><circle class="i" cx="12" cy="12" r="4"/><path class="i" d="M12 2v3M12 19v3M2 12h3M19 12h3"/></symbol>
<symbol id="search" viewBox="0 0 24 24"><circle class="i" cx="11" cy="11" r="7"/><path class="i" d="m20 20-4-4"/></symbol>
<symbol id="droplet" viewBox="0 0 24 24"><path class="i" d="M12 3s7 7 7 12a7 7 0 0 1-14 0c0-5 7-12 7-12Z"/></symbol>
<symbol id="gauge" viewBox="0 0 24 24"><path class="i" d="M5 19a8 8 0 1 1 14 0M12 13l4-4M4 19h16"/></symbol>
<symbol id="cloud" viewBox="0 0 24 24"><path class="i" d="M7 18h10a4 4 0 0 0 0-8 6 6 0 0 0-11-1A4 4 0 0 0 7 18Z"/></symbol>
<symbol id="cloud-rain" viewBox="0 0 24 24"><path class="i" d="M7 18h10a4 4 0 0 0 0-8 6 6 0 0 0-11-1A4 4 0 0 0 7 18Z"/><path class="i" d="M8 20l-1 2M12 20l-1 2M16 20l-1 2"/></symbol>
<symbol id="sun-moon" viewBox="0 0 24 24"><circle class="i" cx="9" cy="9" r="4"/><path class="i" d="M9 2v2M9 14v2M2 9h2M14 9h2M4 4l2 2M12 12l2 2"/><path class="i" d="M15 7a7 7 0 1 0 2 13 7 7 0 0 1-2-13Z"/></symbol>
<symbol id="sun" viewBox="0 0 24 24"><circle class="i" cx="12" cy="12" r="4"/><path class="i" d="M12 2v2M12 20v2M2 12h2M20 12h2M4.9 4.9l1.4 1.4M17.7 17.7l1.4 1.4M4.9 19.1l1.4-1.4M17.7 6.3l1.4-1.4"/></symbol>
<symbol id="moon" viewBox="0 0 24 24"><path class="i" d="M20 15.5A8.5 8.5 0 0 1 8.5 4 8.5 8.5 0 1 0 20 15.5Z"/></symbol>
<symbol id="wind" viewBox="0 0 24 24"><path class="i" d="M4 8h10a3 3 0 1 0-2.8-4M3 12h15a3 3 0 1 1-2.8 4M5 16h6"/></symbol>
<symbol id="waves" viewBox="0 0 24 24"><path class="i" d="M3 9c3 0 3 2 6 2s3-2 6-2 3 2 6 2M3 15c3 0 3 2 6 2s3-2 6-2 3 2 6 2"/></symbol>
<symbol id="fish" viewBox="0 0 24 24"><path class="i" d="M20 12s-3-5-8-5-7 5-7 5 2 5 7 5 8-5 8-5Z"/><path class="i" d="m4 12-3-3v6l3-3M16 10h.01"/></symbol>
<symbol id="home" viewBox="0 0 24 24"><path class="i" d="m3 10 9-7 9 7v10H3z"/><path class="i" d="M9 21v-6h6v6"/></symbol>
<symbol id="map" viewBox="0 0 24 24"><path class="i" d="m3 6 6-3 6 3 6-3v15l-6 3-6-3-6 3zM9 3v15M15 6v15"/></symbol>
<symbol id="calendar" viewBox="0 0 24 24"><rect class="i" x="3" y="4" width="18" height="17" rx="2"/><path class="i" d="M8 2v4M16 2v4M3 10h18M8 14h2M12 14h2M16 14h2M8 18h2"/></symbol>
<symbol id="map-pin" viewBox="0 0 24 24"><path class="i" d="M20 10c0 5-8 11-8 11S4 15 4 10a8 8 0 1 1 16 0Z"/><circle class="i" cx="12" cy="10" r="2.5"/></symbol>
<symbol id="compass" viewBox="0 0 24 24"><circle class="i" cx="12" cy="12" r="9"/><path class="i" d="m15.5 8.5-2.2 4.8-4.8 2.2 2.2-4.8z"/></symbol><symbol id="temperature" viewBox="0 0 24 24"><path class="i" d="M14 14.8V5a2 2 0 0 0-4 0v9.8a5 5 0 1 0 4 0Z"/><path class="i" d="M12 8v7"/></symbol>
<symbol id="tide" viewBox="0 0 24 24"><path class="i" d="M3 8c3 0 3 2 6 2s3-2 6-2 3 2 6 2"/><path class="i" d="M12 4v16M8 16l4 4 4-4"/></symbol>
<symbol id="navigation" viewBox="0 0 24 24"><path class="i" d="m12 3 7 18-7-4-7 4 7-18Z"/></symbol>
<symbol id="cloud-sun" viewBox="0 0 24 24"><circle class="i" cx="17" cy="7" r="3"/><path class="i" d="M17 2v1M17 11v1M12 7h1M21 7h1"/><path class="i" d="M5 18h9a4 4 0 0 0 0-8 6 6 0 0 0-11 1 4 4 0 0 0 2 7Z"/></symbol></svg>